<svg id="SvgjsSvg1000" xmlns="http://www.w3.org/2000/svg" version="1.1" xmlns:xlink="http://www.w3.org/1999/xlink" xmlns:svgjs="http://svgjs.com/svgjs" width="14" height="14"><defs id="SvgjsDefs1001"></defs><path class="close" id="SvgjsPath1007" d="M1372.8 68.36L1367.98 73.17C1367.55 73.61 1366.84 73.61 1366.4 73.17C1365.96 72.73 1365.96 72.02 1366.39 71.58L1371.21 66.75999999999999L1366.33 61.91999999999999C1365.8899999999999 61.47999999999999 1365.8899999999999 60.76999999999999 1366.33 60.329999999999984C1366.77 59.889999999999986 1367.48 59.889999999999986 1367.9199999999998 60.329999999999984L1372.81 65.18999999999998L1377.62 60.37999999999998C1378.06 59.93999999999998 1378.77 59.93999999999998 1379.2099999999998 60.37999999999998C1379.6499999999999 60.81999999999998 1379.6499999999999 61.52999999999998 1379.2099999999998 61.969999999999985L1374.3999999999999 66.77999999999999L1379.28 71.62999999999998C1379.72 72.05999999999999 1379.72 72.76999999999998 1379.28 73.21999999999998C1378.84 73.65999999999998 1378.12 73.65999999999998 1377.68 73.21999999999998L1372.8 68.35999999999999Z " fill="#00abff" fill-opacity="1" transform="matrix(1,0,0,1,-1366,-60)"></path></svg>
