<svg id="SvgjsSvg1011" xmlns="http://www.w3.org/2000/svg" version="1.1" xmlns:xlink="http://www.w3.org/1999/xlink" xmlns:svgjs="http://svgjs.com/svgjs" width="24" height="23.329963777789317"><defs id="SvgjsDefs1012"><clipPath id="SvgjsClipPath1015"><path id="SvgjsPath1014" d="M870 436C876.63 436 882 428 882 428C882 428 876.63 420 870 420C863.37 420 858 428 858 428C858 428 863.37 436 870 436Z " fill="#ffffff"></path></clipPath><clipPath id="SvgjsClipPath1019"><path id="SvgjsPath1018" d="M862 439.66498L862 416.33502L878 416.33502L878 439.66498ZM864.63397 435.29423C864.3578299999999 435.77253 864.52171 436.38412000000005 865 436.66026000000005C865.4783 436.93640000000005 866.08989 436.77252000000004 866.36603 436.29423L875.36603 420.70577000000003C875.6421700000001 420.22747000000004 875.47829 419.61588 875 419.33974C874.5217 419.0636 873.91011 419.22748 873.63397 419.70577000000003Z " fill="#ffffff"></path></clipPath></defs><path id="SvgjsPath1013" d="M870 436C876.63 436 882 428 882 428C882 428 876.63 420 870 420C863.37 420 858 428 858 428C858 428 863.37 436 870 436Z " fill-opacity="0" fill="#ffffff" stroke-dasharray="0" stroke-linejoin="miter" stroke-linecap="butt" stroke-opacity="1" stroke="#1591ce" stroke-miterlimit="50" stroke-width="4" clip-path="url(&quot;#SvgjsClipPath1015&quot;)" transform="matrix(1,0,0,1,-858,-416.33501811110534)"></path><path id="SvgjsPath1016" d="M873.63397 419.70577C873.91011 419.22747999999996 874.5217 419.06359999999995 875 419.33973999999995L875 419.33973999999995C875.47829 419.61587999999995 875.64217 420.2274699999999 875.36603 420.70577L866.36603 436.29422999999997C866.08989 436.77252 865.4783 436.9364 865 436.66026L865 436.66026C864.52171 436.38412 864.35783 435.77253 864.63397 435.29422999999997Z " fill="#1591ce" fill-opacity="1" transform="matrix(1,0,0,1,-858,-416.33501811110534)"></path><path id="SvgjsPath1017" d="M873.63397 419.70577C873.91011 419.22747999999996 874.5217 419.06359999999995 875 419.33973999999995L875 419.33973999999995C875.47829 419.61587999999995 875.64217 420.2274699999999 875.36603 420.70577L866.36603 436.29422999999997C866.08989 436.77252 865.4783 436.9364 865 436.66026L865 436.66026C864.52171 436.38412 864.35783 435.77253 864.63397 435.29422999999997Z " fill-opacity="0" fill="#ffffff" stroke-dasharray="0" stroke-linejoin="miter" stroke-linecap="butt" stroke-opacity="1" stroke="#ffffff" stroke-miterlimit="50" stroke-width="4" clip-path="url(&quot;#SvgjsClipPath1019&quot;)" transform="matrix(1,0,0,1,-858,-416.33501811110534)"></path></svg>