<svg id="SvgjsSvg1000" xmlns="http://www.w3.org/2000/svg" version="1.1" xmlns:xlink="http://www.w3.org/1999/xlink" xmlns:svgjs="http://svgjs.com/svgjs" width="24" height="16"><defs id="SvgjsDefs1001"><clipPath id="SvgjsClipPath1009"><path id="SvgjsPath1008" d="M870 388C876.63 388 882 380 882 380C882 380 876.63 372 870 372C863.37 372 858 380 858 380C858 380 863.37 388 870 388Z " fill="#ffffff"></path></clipPath></defs><path id="SvgjsPath1007" d="M870 388C876.63 388 882 380 882 380C882 380 876.63 372 870 372C863.37 372 858 380 858 380C858 380 863.37 388 870 388Z " fill-opacity="0" fill="#ffffff" stroke-dasharray="0" stroke-linejoin="miter" stroke-linecap="butt" stroke-opacity="1" stroke="#1591ce" stroke-miterlimit="50" stroke-width="4" clip-path="url(&quot;#SvgjsClipPath1009&quot;)" transform="matrix(1,0,0,1,-858,-372)"></path><path id="SvgjsPath1010" d="M867 380C867 378.34315 868.34315 377 870 377C871.65685 377 873 378.34315 873 380C873 381.65685 871.65685 383 870 383C868.34315 383 867 381.65685 867 380Z " fill="#1591ce" fill-opacity="1" transform="matrix(1,0,0,1,-858,-372)"></path></svg>