<svg id="Vrstva_1" data-name="Vrstva 1" xmlns="http://www.w3.org/2000/svg" viewBox="0 0 134.85 30.51" width="135" height="31"><defs><style>.cls-1{fill:#fff;}</style></defs><title>Bez názvu-1</title><path class="cls-1" d="M243.39,431.13a12.39,12.39,0,1,1,12.39-12.39A12.41,12.41,0,0,1,243.39,431.13Zm0-21.55a9.16,9.16,0,1,0,9.16,9.16A9.17,9.17,0,0,0,243.39,409.58Z" transform="translate(-231 -406.34)"/><path class="cls-1" d="M270.91,431.13a12.39,12.39,0,1,1,12.39-12.39A12.41,12.41,0,0,1,270.91,431.13Zm0-21.55a9.16,9.16,0,1,0,9.16,9.16A9.17,9.17,0,0,0,270.91,409.58Z" transform="translate(-231 -406.34)"/><path class="cls-1" d="M326,431.13a12.39,12.39,0,1,1,12.39-12.39A12.41,12.41,0,0,1,326,431.13Zm0-21.55a9.16,9.16,0,1,0,9.16,9.16A9.17,9.17,0,0,0,326,409.58Z" transform="translate(-231 -406.34)"/><path class="cls-1" d="M298.42,431.13a12.39,12.39,0,1,1,12.39-12.39A12.41,12.41,0,0,1,298.42,431.13Zm0-21.55a9.16,9.16,0,1,0,9.16,9.16A9.17,9.17,0,0,0,298.42,409.58Z" transform="translate(-231 -406.34)"/><path class="cls-1" d="M353.46,431.13a12.39,12.39,0,1,1,12.39-12.39A12.41,12.41,0,0,1,353.46,431.13Zm0-21.55a9.16,9.16,0,1,0,9.16,9.16A9.17,9.17,0,0,0,353.46,409.58Z" transform="translate(-231 -406.34)"/><path class="cls-1" d="M260.13,436.86a1.62,1.62,0,0,1-1.62-1.62V420.18a1.62,1.62,0,0,1,3.24,0v15.06A1.62,1.62,0,0,1,260.13,436.86Z" transform="translate(-231 -406.34)"/><path class="cls-1" d="M336.8,436.86a1.62,1.62,0,0,1-1.62-1.62V420.18a1.62,1.62,0,0,1,3.24,0v15.06A1.62,1.62,0,0,1,336.8,436.86Z" transform="translate(-231 -406.34)"/></svg>
