<?xml version="1.0" encoding="UTF-8"?>
<svg width="102px" height="77px" viewBox="0 0 102 77" version="1.1" xmlns="http://www.w3.org/2000/svg" xmlns:xlink="http://www.w3.org/1999/xlink">
    <!-- Generator: Sketch 42 (36781) - http://www.bohemiancoding.com/sketch -->
    <title>logo</title>
    <desc>Created with Sketch.</desc>
    <defs>
        <ellipse id="path-1" cx="49" cy="27" rx="27" ry="27"></ellipse>
        <mask id="mask-2" maskContentUnits="userSpaceOnUse" maskUnits="objectBoundingBox" x="0" y="0" width="54" height="54" fill="white">
            <use xlink:href="#path-1"></use>
        </mask>
    </defs>
    <g id="logo-a-font-a-preloader" stroke="none" stroke-width="1" fill="none" fill-rule="evenodd">
        <g id="logo">
            <path d="M0.439453125,63.4394531 L4.78515625,63.4394531 C6.58204023,63.4394531 7.91015195,63.6917292 8.76953125,64.1962891 C9.62891055,64.7008489 10.0585938,65.4609324 10.0585938,66.4765625 C10.0585938,68.0325599 9.12761348,69.1555955 7.265625,69.8457031 C9.55079268,70.1907569 10.6933594,71.2324132 10.6933594,72.9707031 C10.6933594,74.1165422 10.2311244,75.0361293 9.30664062,75.7294922 C8.38215684,76.422855 6.7610793,76.7695312 4.44335938,76.7695312 L0.126953125,76.7792969 C0.0423172852,76.5579416 0,76.3496104 0,76.1542969 C0,76.0240879 0.0341793457,75.9280602 0.102539062,75.8662109 C0.170898779,75.8043617 0.283202344,75.7734375 0.439453125,75.7734375 L1.16210938,75.7734375 C1.20768252,74.8619746 1.23046875,72.8958484 1.23046875,69.875 C1.23046875,67.1601427 1.20768252,65.3502649 1.16210938,64.4453125 L0.126953125,64.4453125 C0.0423172852,64.2239572 0,64.0188812 0,63.8300781 C0,63.6933587 0.0341793457,63.5940758 0.102539062,63.5322266 C0.170898779,63.4703773 0.283202344,63.4394531 0.439453125,63.4394531 L0.439453125,63.4394531 Z M3.3984375,70.5976562 L3.3984375,72.921875 C3.3984375,74.0677141 3.48144448,74.7578113 3.64746094,74.9921875 C3.81347739,75.2265637 4.4173125,75.34375 5.45898438,75.34375 C6.47461445,75.34375 7.20214624,75.1663429 7.64160156,74.8115234 C8.08105688,74.456704 8.30078125,73.8951861 8.30078125,73.1269531 C8.30078125,72.2805947 8.02083613,71.6311872 7.4609375,71.1787109 C6.90103887,70.7262347 6.04818281,70.5 4.90234375,70.5 C4.35546602,70.5 3.85416895,70.5325518 3.3984375,70.5976562 L3.3984375,70.5976562 Z M3.3984375,69.1914062 C3.77604355,69.2434898 4.19596123,69.2695312 4.65820312,69.2695312 C5.7259168,69.2695312 6.49413828,69.0807311 6.96289062,68.703125 C7.43164297,68.3255189 7.66601562,67.7786494 7.66601562,67.0625 C7.66601562,66.3072879 7.43327056,65.7522804 6.96777344,65.3974609 C6.50227632,65.0426415 5.77474453,64.8652344 4.78515625,64.8652344 C4.31640391,64.8652344 3.87044482,64.8977861 3.44726562,64.9628906 C3.42122383,65.7962281 3.40494795,67.2057192 3.3984375,69.1914062 L3.3984375,69.1914062 Z M12.65625,70.7636719 C12.65625,68.1985549 13.1884712,66.3040426 14.2529297,65.0800781 C15.3173881,63.8561137 16.8196518,63.2441406 18.7597656,63.2441406 C20.5306078,63.2441406 21.8782506,63.6884721 22.8027344,64.5771484 C23.7272182,65.4658248 24.1894531,67.0885299 24.1894531,69.4453125 C24.1894531,72.0104295 23.6572319,73.9049418 22.5927734,75.1289062 C21.528315,76.3528707 20.0260514,76.9648438 18.0859375,76.9648438 C16.3150953,76.9648438 14.9674525,76.5221398 14.0429688,75.6367188 C13.118485,74.7512977 12.65625,73.1269649 12.65625,70.7636719 L12.65625,70.7636719 Z M15.0488281,69.8652344 C15.0488281,72.0397244 15.3434215,73.5289673 15.9326172,74.3330078 C16.5218128,75.1370483 17.3958275,75.5390625 18.5546875,75.5390625 C19.6289116,75.5390625 20.4378228,75.1321655 20.9814453,74.3183594 C21.5250678,73.5045532 21.796875,72.1796967 21.796875,70.34375 C21.796875,68.1432182 21.5022816,66.6474649 20.9130859,65.8564453 C20.3238903,65.0654257 19.4498756,64.6699219 18.2910156,64.6699219 C17.2167915,64.6699219 16.4078803,65.0768188 15.8642578,65.890625 C15.3206353,66.7044312 15.0488281,68.0292877 15.0488281,69.8652344 L15.0488281,69.8652344 Z M26.9140625,63.4394531 L30.0195312,63.4394531 C31.0677136,65.3339938 32.0556594,67.0608646 32.9833984,68.6201172 C33.9111375,70.1793698 34.9218695,72.0397027 36.015625,74.2011719 L36.015625,68.8007812 C36.015625,66.8020733 35.9928388,65.3502649 35.9472656,64.4453125 L34.9414062,64.4453125 C34.8567704,64.2239572 34.8144531,64.0188812 34.8144531,63.8300781 C34.8144531,63.6933587 34.8486325,63.5940758 34.9169922,63.5322266 C34.9853519,63.4703773 35.0976555,63.4394531 35.2539062,63.4394531 L38.9257812,63.4394531 C39.0039066,63.6347666 39.0429688,63.8235668 39.0429688,64.0058594 C39.0429688,64.1686206 39.010417,64.2825518 38.9453125,64.3476562 C38.880208,64.4127607 38.7662769,64.4453125 38.6035156,64.4453125 L37.8125,64.4453125 C37.7669269,65.3502649 37.7441406,66.8411354 37.7441406,68.9179688 L37.7441406,75.9785156 C37.7441406,76.3626321 37.687175,76.6067703 37.5732422,76.7109375 C37.4593093,76.8151047 37.1940125,76.8671875 36.7773438,76.8671875 C35.970048,76.8671875 35.5061855,76.8362633 35.3857422,76.7744141 C35.2652989,76.7125648 34.4742912,75.503267 33.0126953,73.1464844 C31.5510995,70.7897018 30.3255258,68.5859478 29.3359375,66.5351562 C29.3359375,71.7825783 29.3587237,74.8587194 29.4042969,75.7636719 L30.3613281,75.7636719 C30.445964,75.9589854 30.4882812,76.1477855 30.4882812,76.3300781 C30.4882812,76.4928394 30.4557295,76.6067705 30.390625,76.671875 C30.3255205,76.7369795 30.2083342,76.7695312 30.0390625,76.7695312 L26.40625,76.7695312 C26.3216142,76.548176 26.2792969,76.3430999 26.2792969,76.1542969 C26.2792969,76.0175774 26.3134762,75.9182946 26.3818359,75.8564453 C26.4501957,75.794596 26.5624992,75.7636719 26.71875,75.7636719 L27.5390625,75.7636719 C27.5846356,74.8587194 27.6074219,72.5377791 27.6074219,68.8007812 C27.6074219,66.8020733 27.5813805,65.3502649 27.5292969,64.4453125 L26.6015625,64.4453125 C26.5169267,64.2239572 26.4746094,64.0188812 26.4746094,63.8300781 C26.4746094,63.6933587 26.5087887,63.5940758 26.5771484,63.5322266 C26.6455082,63.4703773 26.7578117,63.4394531 26.9140625,63.4394531 L26.9140625,63.4394531 Z M45.7324219,64.8652344 C45.2376277,64.8652344 44.8144549,64.8977861 44.4628906,64.9628906 C44.4173175,65.9459685 44.3945312,68.3613089 44.3945312,72.2089844 C44.3945312,73.8235758 44.4791658,74.7496733 44.6484375,74.9873047 C44.8177092,75.2249361 45.406896,75.34375 46.4160156,75.34375 C47.5944069,75.34375 48.474932,74.9840531 49.0576172,74.2646484 C49.6403024,73.5452438 49.9316406,72.205739 49.9316406,70.2460938 C49.9316406,68.2343649 49.5914748,66.8346394 48.9111328,66.046875 C48.2307909,65.2591106 47.1712312,64.8652344 45.7324219,64.8652344 L45.7324219,64.8652344 Z M41.4355469,63.4394531 L45.3808594,63.4394531 C48.0045704,63.4394531 49.8177033,63.909826 50.8203125,64.8505859 C51.8229217,65.7913458 52.3242188,67.3391819 52.3242188,69.4941406 C52.3242188,71.9095173 51.8164113,73.7259054 50.8007812,74.9433594 C49.7851512,76.1608134 48.1087356,76.7695312 45.7714844,76.7695312 L41.1230469,76.7792969 C41.038411,76.5579416 40.9960938,76.3496104 40.9960938,76.1542969 C40.9960938,76.0240879 41.0302731,75.9280602 41.0986328,75.8662109 C41.1669925,75.8043617 41.2792961,75.7734375 41.4355469,75.7734375 L42.1582031,75.7734375 C42.2037763,74.8619746 42.2265625,72.5377791 42.2265625,68.8007812 C42.2265625,66.8020733 42.2037763,65.3502649 42.1582031,64.4453125 L41.1230469,64.4453125 C41.038411,64.2239572 40.9960938,64.0188812 40.9960938,63.8300781 C40.9960938,63.6933587 41.0302731,63.5940758 41.0986328,63.5322266 C41.1669925,63.4703773 41.2792961,63.4394531 41.4355469,63.4394531 L41.4355469,63.4394531 Z M59.5117188,63.2441406 C60.9244862,63.2441406 61.9042941,63.3271476 62.4511719,63.4931641 C62.9980496,63.6591805 63.2714844,63.9798153 63.2714844,64.4550781 C63.2714844,64.8912782 63.0957049,65.2786441 62.7441406,65.6171875 C61.3769463,64.9921844 60.1074277,64.6796875 58.9355469,64.6796875 C58.1087198,64.6796875 57.5244158,64.8440739 57.1826172,65.1728516 C56.8408186,65.5016292 56.6699219,65.9557263 56.6699219,66.5351562 C56.6699219,67.140628 56.8733704,67.622394 57.2802734,67.9804688 C57.6871765,68.3385435 58.4602808,68.6966128 59.5996094,69.0546875 C60.9472724,69.4583354 61.96777,69.9221979 62.6611328,70.4462891 C63.3544957,70.9703802 63.7207029,71.8183535 63.7597656,72.9902344 C63.7597656,74.2988347 63.312179,75.2884081 62.4169922,75.9589844 C61.5218054,76.6295606 60.153004,76.9648438 58.3105469,76.9648438 C57.0279884,76.9648438 56.0546908,76.8736988 55.390625,76.6914062 C54.7265592,76.5091137 54.3945312,76.1705754 54.3945312,75.6757812 C54.3945312,75.2265603 54.5833314,74.8294288 54.9609375,74.484375 C56.2500064,75.1875035 57.5911389,75.5390625 58.984375,75.5390625 C59.941411,75.5390625 60.6217428,75.3828141 61.0253906,75.0703125 C61.4290385,74.7578109 61.6308594,74.2760449 61.6308594,73.625 C61.6308594,72.8437461 61.3395211,72.2578145 60.7568359,71.8671875 C60.1741507,71.4765605 59.244798,71.0794291 57.96875,70.6757812 C56.7317646,70.2981752 55.8512396,69.8245471 55.3271484,69.2548828 C54.8030573,68.6852185 54.5410156,67.9381557 54.5410156,67.0136719 C54.5410156,65.8613224 54.9690712,64.9449904 55.8251953,64.2646484 C56.6813194,63.5843065 57.9101482,63.2441406 59.5117188,63.2441406 L59.5117188,63.2441406 Z M69.6191406,75.7636719 C69.6712242,74.8587194 69.6972656,72.5377791 69.6972656,68.8007812 C69.6972656,66.8020733 69.6712242,65.4348995 69.6191406,64.6992188 C67.3079312,64.7968755 66.0026057,64.8457031 65.703125,64.8457031 C65.4166652,64.8457031 65.2180995,64.8001307 65.1074219,64.7089844 C64.9967442,64.6178381 64.9414062,64.4453138 64.9414062,64.1914062 C64.9414062,63.8268211 65.0325512,63.4296896 65.2148438,63 C66.3216201,63.2929702 67.9264218,63.4394531 70.0292969,63.4394531 L76.1328125,63.4394531 C76.4192723,63.4394531 76.6194656,63.4866532 76.7333984,63.5810547 C76.8473313,63.6754562 76.9042969,63.8463529 76.9042969,64.09375 C76.9042969,64.5494814 76.7708347,64.9824198 76.5039062,65.3925781 C75.4166612,64.9303362 74.0039149,64.6992188 72.265625,64.6992188 L71.9335938,64.6992188 C71.8815102,65.4348995 71.8554688,66.8411354 71.8554688,68.9179688 C71.8554688,72.5768412 71.8815102,74.8587194 71.9335938,75.7636719 L73.3300781,75.7636719 C73.4082035,75.9589854 73.4472656,76.1477855 73.4472656,76.3300781 C73.4472656,76.4928394 73.4147139,76.6067705 73.3496094,76.671875 C73.2845049,76.7369795 73.1705737,76.7695312 73.0078125,76.7695312 L68.2226562,76.7695312 C68.1380204,76.548176 68.0957031,76.3430999 68.0957031,76.1542969 C68.0957031,76.0175774 68.1298825,75.9182946 68.1982422,75.8564453 C68.2666019,75.794596 68.3789055,75.7636719 68.5351562,75.7636719 L69.6191406,75.7636719 Z M78.4179688,63.4394531 L86.7773438,63.4394531 C87.1484394,63.4394531 87.4023431,63.4915359 87.5390625,63.5957031 C87.6757819,63.6998703 87.7441406,63.9082016 87.7441406,64.2207031 C87.7441406,64.6178405 87.6204439,65.0279927 87.3730469,65.4511719 C86.142572,64.9498673 84.4498806,64.6992188 82.2949219,64.6992188 L81.4453125,64.6992188 C81.3997394,65.4348995 81.3802083,66.8964734 81.3867188,69.0839844 L86.4941406,69.0839844 C86.5787765,69.3378919 86.6210938,69.6048163 86.6210938,69.8847656 C86.6210938,70.0670582 86.588542,70.1891273 86.5234375,70.2509766 C86.458333,70.3128258 86.3313812,70.34375 86.1425781,70.34375 L81.3769531,70.34375 C81.3834636,73.1562641 81.4062498,74.8782521 81.4453125,75.5097656 L82.8125,75.5097656 C84.8893333,75.5097656 86.5201764,75.2819033 87.7050781,74.8261719 C87.9134125,75.1842466 88.0175781,75.5553366 88.0175781,75.9394531 C88.0175781,76.2259129 87.923178,76.4358717 87.734375,76.5693359 C87.545572,76.7028001 87.1614612,76.7695312 86.5820312,76.7695312 L78.1054688,76.7792969 C78.0208329,76.5579416 77.9785156,76.3496104 77.9785156,76.1542969 C77.9785156,76.0240879 78.012695,75.9280602 78.0810547,75.8662109 C78.1494144,75.8043617 78.261718,75.7734375 78.4179688,75.7734375 L79.140625,75.7734375 C79.1861981,74.8619746 79.2089844,72.5377791 79.2089844,68.8007812 C79.2089844,66.8020733 79.1861981,65.3502649 79.140625,64.4453125 L78.1054688,64.4453125 C78.0208329,64.2239572 77.9785156,64.0188812 77.9785156,63.8300781 C77.9785156,63.6933587 78.012695,63.5940758 78.0810547,63.5322266 C78.1494144,63.4703773 78.261718,63.4394531 78.4179688,63.4394531 L78.4179688,63.4394531 Z M93.2421875,69.9238281 L94.0625,69.9238281 C95.1953182,69.9238281 96.053057,69.7252624 96.6357422,69.328125 C97.2184274,68.9309876 97.5097656,68.3385456 97.5097656,67.5507812 C97.5097656,66.6262975 97.2460964,65.9475933 96.71875,65.5146484 C96.1914036,65.0817036 95.4362028,64.8652344 94.453125,64.8652344 C94.003904,64.8652344 93.6263036,64.8977861 93.3203125,64.9628906 C93.2682289,65.5227893 93.2421875,66.8411354 93.2421875,68.9179688 L93.2421875,69.9238281 Z M93.3203125,75.7636719 L94.7167969,75.7636719 C94.7949223,75.9589854 94.8339844,76.1477855 94.8339844,76.3300781 C94.8339844,76.4928394 94.8014326,76.6067705 94.7363281,76.671875 C94.6712236,76.7369795 94.5572925,76.7695312 94.3945312,76.7695312 L89.8046875,76.7695312 C89.7200517,76.548176 89.6777344,76.3430999 89.6777344,76.1542969 C89.6777344,76.0175774 89.7119137,75.9182946 89.7802734,75.8564453 C89.8486332,75.794596 89.9609367,75.7636719 90.1171875,75.7636719 L91.0058594,75.7636719 C91.057943,74.8587194 91.0839844,72.5377791 91.0839844,68.8007812 C91.0839844,66.8020733 91.057943,65.3502649 91.0058594,64.4453125 L89.8730469,64.4453125 C89.7949215,64.2239572 89.7558594,64.0188812 89.7558594,63.8300781 C89.7558594,63.6933587 89.7900387,63.5940758 89.8583984,63.5322266 C89.9267582,63.4703773 90.0390617,63.4394531 90.1953125,63.4394531 L94.4042969,63.4394531 C96.3899839,63.4394531 97.8027302,63.7128879 98.6425781,64.2597656 C99.4824261,64.8066434 99.9023438,65.6692649 99.9023438,66.8476562 C99.9023438,68.6510507 98.8216254,69.8815071 96.6601562,70.5390625 C97.2786489,70.7278655 97.779946,71.0745417 98.1640625,71.5791016 C98.548179,72.0836614 98.9534484,72.8046828 99.3798828,73.7421875 C99.8063172,74.6796922 100.1416,75.2542307 100.385742,75.4658203 C100.629884,75.6774099 100.97656,75.7766928 101.425781,75.7636719 C101.562501,76.2324242 101.546225,76.5498039 101.376953,76.7158203 C101.207681,76.8818368 100.787764,76.9648438 100.117188,76.9648438 C99.342444,76.9648438 98.785809,76.8639333 98.4472656,76.6621094 C98.1087223,76.4602854 97.7555357,75.7425192 97.3876953,74.5087891 C97.0198549,73.2750589 96.6308614,72.4075546 96.2207031,71.90625 C95.8105448,71.4049454 95.2181028,71.1542969 94.4433594,71.1542969 C94.0397115,71.1542969 93.6393249,71.1868486 93.2421875,71.2519531 C93.2552084,73.4980581 93.2812498,75.0019493 93.3203125,75.7636719 L93.3203125,75.7636719 Z" id="BONDSTER" fill="#FFFFFF"></path>
            <path d="M26,27 C26,14.2974508 36.2974508,4 49,4 C61.7025492,4 72,14.2974508 72,27 C72,39.7025492 61.7025492,50 49,50 C36.2974508,50 26,39.7025492 26,27 Z" id="Oval-3" fill="#FFFFFF" fill-rule="nonzero"></path>
            <path d="M40.7830717,15 L48.5267812,15 C51.7286906,15 54.0952837,15.4495367 55.6266317,16.3486236 C57.1579796,17.2477104 57.9236421,18.602121 57.9236421,20.4118958 C57.9236421,23.1845637 56.2647067,25.1857271 52.9467862,26.4154459 C57.0187796,27.0303053 59.0547458,28.8864568 59.0547458,31.983956 C59.0547458,34.0257533 58.2310785,35.6643871 56.5837194,36.8999064 C54.9363602,38.1354258 52.0477244,38.7531762 47.9177254,38.7531762 L40.2262207,38.7705778 C40.0754062,38.3761397 40,38.0049094 40,37.6568758 C40,37.4248534 40.060905,37.2537394 40.1827167,37.1435288 C40.3045285,37.0333181 40.5046448,36.9782136 40.7830717,36.9782136 L42.0707897,36.9782136 C42.1519976,35.3540567 42.1926009,31.8505707 42.1926009,26.4676506 C42.1926009,21.6299832 42.1519976,18.40492 42.0707897,16.7923642 L40.2262207,16.7923642 C40.0754062,16.3979261 40,16.0324963 40,15.6960638 C40,15.4524402 40.060905,15.2755258 40.1827167,15.1653151 C40.3045285,15.0551045 40.5046448,15 40.7830717,15 Z M46.0557548,27.7553686 L46.0557548,31.8969481 C46.0557548,33.9387453 46.2036669,35.1684457 46.4994955,35.5860861 C46.7953241,36.0037264 47.8713119,36.2125435 49.7274912,36.2125435 C51.5372661,36.2125435 52.8336719,35.8964177 53.6167475,35.2641566 C54.3998232,34.6318955 54.7913552,33.6313138 54.7913552,32.2623816 C54.7913552,30.7542358 54.2925144,29.5970414 53.294818,28.7907635 C52.2971217,27.9844856 50.7773976,27.5813527 48.7356003,27.5813527 C47.7611062,27.5813527 46.8678333,27.6393574 46.0557548,27.7553686 Z M46.0557548,25.249539 C46.7286198,25.342348 47.4768809,25.3887518 48.3005605,25.3887518 C50.2031443,25.3887518 51.572056,25.0523243 52.4073367,24.3794593 C53.2426174,23.7065943 53.6602515,22.7321148 53.6602515,21.4559915 C53.6602515,20.1102615 53.2455177,19.1212807 52.4160375,18.4890197 C51.5865574,17.8567586 50.2901516,17.5406328 48.5267812,17.5406328 C47.6915005,17.5406328 46.8968356,17.5986375 46.1427628,17.7146487 C46.0963583,19.1995922 46.0673559,21.7111972 46.0557548,25.249539 Z" id="B" fill="#D63A64"></path>
            <use id="Oval" stroke="#FFFFFF" mask="url(#mask-2)" stroke-width="3" xlink:href="#path-1"></use>
        </g>
    </g>
</svg>