<?xml version="1.0" encoding="UTF-8"?>
<svg width="54px" height="54px" viewBox="0 0 54 54" version="1.1" xmlns="http://www.w3.org/2000/svg" xmlns:xlink="http://www.w3.org/1999/xlink">
    <!-- Generator: Sketch 41.2 (35397) - http://www.bohemiancoding.com/sketch -->
    <title>logo bile bg</title>
    <desc>Created with Sketch.</desc>
    <defs>
        <circle id="path-1" cx="27" cy="27" r="27"></circle>
        <mask id="mask-2" maskContentUnits="userSpaceOnUse" maskUnits="objectBoundingBox" x="0" y="0" width="54" height="54" fill="white">
            <use xlink:href="#path-1"></use>
        </mask>
    </defs>
    <g id="logo-a-font-a-preloader" stroke="none" stroke-width="1" fill="none" fill-rule="evenodd">
        <g id="logo-bile-bg">
            <path d="M4,27 C4,14.2974508 14.2974508,4 27,4 C39.7025492,4 50,14.2974508 50,27 C50,39.7025492 39.7025492,50 27,50 C14.2974508,50 4,39.7025492 4,27 Z" id="Oval-3" fill="#D63A64"></path>
            <path d="M18.7830717,15 L26.5267812,15 C29.7286906,15 32.0952837,15.4495367 33.6266317,16.3486236 C35.1579796,17.2477104 35.9236421,18.602121 35.9236421,20.4118958 C35.9236421,23.1845637 34.2647067,25.1857271 30.9467862,26.4154459 C35.0187796,27.0303053 37.0547458,28.8864568 37.0547458,31.983956 C37.0547458,34.0257533 36.2310785,35.6643871 34.5837194,36.8999064 C32.9363602,38.1354258 30.0477244,38.7531762 25.9177254,38.7531762 L18.2262207,38.7705778 C18.0754062,38.3761397 18,38.0049094 18,37.6568758 C18,37.4248534 18.060905,37.2537394 18.1827167,37.1435288 C18.3045285,37.0333181 18.5046448,36.9782136 18.7830717,36.9782136 L20.0707897,36.9782136 C20.1519976,35.3540567 20.1926009,31.8505707 20.1926009,26.4676506 C20.1926009,21.6299832 20.1519976,18.40492 20.0707897,16.7923642 L18.2262207,16.7923642 C18.0754062,16.3979261 18,16.0324963 18,15.6960638 C18,15.4524402 18.060905,15.2755258 18.1827167,15.1653151 C18.3045285,15.0551045 18.5046448,15 18.7830717,15 Z M24.0557548,27.7553686 L24.0557548,31.8969481 C24.0557548,33.9387453 24.2036669,35.1684457 24.4994955,35.5860861 C24.7953241,36.0037264 25.8713119,36.2125435 27.7274912,36.2125435 C29.5372661,36.2125435 30.8336719,35.8964177 31.6167475,35.2641566 C32.3998232,34.6318955 32.7913552,33.6313138 32.7913552,32.2623816 C32.7913552,30.7542358 32.2925144,29.5970414 31.294818,28.7907635 C30.2971217,27.9844856 28.7773976,27.5813527 26.7356003,27.5813527 C25.7611062,27.5813527 24.8678333,27.6393574 24.0557548,27.7553686 Z M24.0557548,25.249539 C24.7286198,25.342348 25.4768809,25.3887518 26.3005605,25.3887518 C28.2031443,25.3887518 29.572056,25.0523243 30.4073367,24.3794593 C31.2426174,23.7065943 31.6602515,22.7321148 31.6602515,21.4559915 C31.6602515,20.1102615 31.2455177,19.1212807 30.4160375,18.4890197 C29.5865574,17.8567586 28.2901516,17.5406328 26.5267812,17.5406328 C25.6915005,17.5406328 24.8968356,17.5986375 24.1427628,17.7146487 C24.0963583,19.1995922 24.0673559,21.7111972 24.0557548,25.249539 Z" id="B" fill="#FFFFFF"></path>
            <use id="Oval" stroke="#D63A64" mask="url(#mask-2)" stroke-width="3" xlink:href="#path-1"></use>
        </g>
    </g>
</svg>